<svg xmlns="http://www.w3.org/2000/svg" viewBox="0 0 3090.6 2049.2"><defs><style>.cls-1{fill:#78cedb;}.cls-2{fill:#684d3c;opacity:0.64;}.cls-3{fill:#ffb3aa;}.cls-4{fill:#fff;}.cls-5{fill:#f8dfe1;}.cls-6{fill:#654a77;}.cls-7{fill:#4a3d54;}.cls-8{fill:#d89b98;}.cls-9{fill:#811d38;}.cls-10{fill:#ed957c;}.cls-11{fill:#48012f;}.cls-12{fill:#ffd5ce;}.cls-13{fill:#c1946f;}.cls-14{fill:#bc8d66;}.cls-15,.cls-21{fill:#b78963;}.cls-16{fill:#e8ab7e;}.cls-17{fill:#e5bd7f;}.cls-18{fill:#c9a26d;}.cls-19{fill:#753562;}.cls-20{fill:#4d3a42;}.cls-21{opacity:0.76;}.cls-22{fill:#d1e9e9;}.cls-23{fill:#c3e1df;}.cls-24{fill:#fab82c;}.cls-25{fill:#eef7f9;}.cls-26{fill:#efad25;}.cls-27{fill:#db962e;}.cls-28{fill:#7f162c;}.cls-29{fill:#e8e8e8;}.cls-30{fill:#49052c;}.cls-31{fill:#5b4554;}.cls-32{fill:#ffb4ae;}.cls-33{fill:#6f011e;}.cls-34{fill:#490218;}.cls-35{fill:#f4f2f3;}.cls-36{fill:#3d7f5e;}.cls-37{fill:#515151;}.cls-38{fill:#c9c9c9;}.cls-39{fill:#7a6434;}.cls-40{fill:#66532d;}.cls-41{fill:#68552e;opacity:0.72;}.cls-42{fill:#aaa;}</style></defs><title>bar</title><g id="Layer_6" data-name="Layer 6"><rect class="cls-1" width="3090.6" height="2049.18"/></g><g id="bar_shadow" data-name="bar shadow"><rect class="cls-2" x="807" y="1438.8" width="1541.9" height="89" rx="38.1" ry="38.1" transform="translate(3155.8 2966.6) rotate(-180)"/></g><g id="bartender"><rect class="cls-3" x="1036.4" y="868.9" width="39" height="38.97" rx="19.5" ry="19.5" transform="translate(2111.7 1776.7) rotate(-180)"/><rect class="cls-4" x="1053" y="870.5" width="25" height="65.05" rx="8.9" ry="8.9" transform="translate(1180.3 2295) rotate(-135)"/><rect class="cls-4" x="1030.7" y="871.1" width="25" height="64.36" rx="9.9" ry="9.9" transform="translate(-333.2 1002.2) rotate(-45)"/><rect class="cls-4" x="1061.4" y="860.4" width="174.3" height="42.56" rx="21.3" ry="21.3" transform="translate(-295.1 769.9) rotate(-33.1)"/><path class="cls-5" d="M1115.9,902.1l87.6-57,12,18.4-108.8,70.9c-5.4,3.6-14.2,8.1-24.2,1.5h0C1087.1,919.2,1101.7,911.4,1115.9,902.1Z"/><path class="cls-6" d="M985.6,1037.8h132.6V910.1a25,25,0,0,0-9.6-17.7l-8.4-8.6-45,47-44-49c-7.7-3.2-11.1-2.5-18.3,1.7l-3.8,2.2a25.3,25.3,0,0,0-12.8,23.7Z"/><path class="cls-5" d="M981.2,950.2v104.5h-22V924.9c0-6.5,1-16.4,12-21.2h0C982.6,916.7,981.2,933.2,981.2,950.2Z"/><rect class="cls-3" x="1193.4" y="817.6" width="39" height="89" rx="19.5" ry="19.5" transform="translate(2625.1 1331.1) rotate(163)"/><rect class="cls-4" x="893.4" y="967.4" width="174.3" height="42.56" rx="21.3" ry="21.3" transform="translate(1969.3 8.1) rotate(90)"/><rect class="cls-7" x="1055.5" y="890.8" width="11.8" height="21.73" rx="5.9" ry="5.9" transform="translate(312.1 2075.7) rotate(-97.8)"/><rect class="cls-7" x="1040.5" y="890.8" width="11.8" height="21.73" rx="5.9" ry="5.9" transform="translate(-32.6 1764.1) rotate(-79.4)"/><path class="cls-3" d="M1033.7,755.8h33.2a42.3,42.3,0,0,1,42.3,42.3v77.7a0,0,0,0,1,0,0h-103a0,0,0,0,1,0,0V783.3A27.5,27.5,0,0,1,1033.7,755.8Z" transform="translate(2115.4 1631.6) rotate(-180)"/><rect class="cls-8" x="1006.2" y="764.8" width="16.6" height="36"/><path class="cls-9" d="M1046,879.1h34.6a28.6,28.6,0,0,0,28.6-28.6V831.2h-73.1a12.8,12.8,0,0,1-12.7-12.3l-.6-22.1h-14.6v44.5A37.8,37.8,0,0,0,1046,879.1Z"/><path class="cls-9" d="M1020.2,767.8h80.5a22.5,22.5,0,0,0,22.5-22.5v-4a22.5,22.5,0,0,0-22.5-22.5h-49a22.5,22.5,0,0,0-22.5,22.5l-23,14.5C1006.2,761.1,993.2,760.8,1020.2,767.8Z"/><ellipse class="cls-9" cx="1016.7" cy="744.3" rx="22.5" ry="23.5"/><circle class="cls-3" cx="1007.7" cy="800.3" r="13.5"/><circle class="cls-10" cx="1007.2" cy="800.8" r="6"/></g><g id="bar"><rect class="cls-11" x="1387.2" y="934.8" width="5" height="5" transform="translate(2779.4 1874.6) rotate(-180)"/><rect class="cls-12" x="1385.2" y="938.8" width="9" height="83" rx="1.3" ry="1.3" transform="translate(2779.4 1960.6) rotate(-180)"/><rect class="cls-13" x="925.2" y="1078.8" width="1287" height="44" transform="translate(3137.4 2201.6) rotate(-180)"/><rect class="cls-14" x="947.2" y="1122.8" width="1239" height="349.5" transform="translate(3133.4 2595.1) rotate(-180)"/><rect class="cls-15" x="947.2" y="1122.8" width="1239" height="30" transform="translate(3133.4 2275.6) rotate(-180)"/><rect class="cls-16" x="925.2" y="1056.8" width="1287" height="22" transform="translate(3137.4 2135.6) rotate(-180)"/><path class="cls-17" d="M999.2,1031.8h445a0,0,0,0,1,0,0v13.5a11.5,11.5,0,0,1-11.5,11.5H1009.8a10.6,10.6,0,0,1-10.6-10.6v-14.4A0,0,0,0,1,999.2,1031.8Z" transform="translate(2443.4 2088.6) rotate(-180)"/><rect class="cls-18" x="999.2" y="1042.8" width="445" height="14" transform="translate(2443.4 2099.6) rotate(-180)"/><rect class="cls-11" x="1359.2" y="1016.4" width="60" height="15.42" rx="7.7" ry="7.7" transform="translate(2778.4 2048.2) rotate(180)"/><rect class="cls-19" x="1364.2" y="1020.8" width="24" height="5" rx="2.5" ry="2.5" transform="translate(2752.4 2046.6) rotate(-180)"/><rect class="cls-11" x="1368.8" y="907.5" width="41" height="15.71" rx="7.7" ry="7.7" transform="translate(474 2304.7) rotate(-90)"/><rect class="cls-19" x="1371.2" y="912.8" width="29" height="5" rx="2.5" ry="2.5" transform="translate(470.4 2301) rotate(-90)"/><rect class="cls-20" x="1370.2" y="1010.8" width="38" height="6" rx="1.6" ry="1.6" transform="translate(2778.4 2027.6) rotate(-180)"/><path class="cls-11" d="M1387.2,949.8h4a15,15,0,0,1,15,15v32.8a5.3,5.3,0,0,1-5.3,5.3h-23.5a5.3,5.3,0,0,1-5.3-5.3V964.8a15,15,0,0,1,15-15Z" transform="translate(2778.4 1952.6) rotate(-180)"/><rect class="cls-11" x="1304.2" y="934.8" width="5" height="5" transform="translate(2613.4 1874.6) rotate(-180)"/><rect class="cls-12" x="1302.2" y="938.8" width="9" height="83" rx="1.3" ry="1.3" transform="translate(2613.4 1960.6) rotate(-180)"/><rect class="cls-11" x="1276.2" y="1016.4" width="60" height="15.42" rx="7.7" ry="7.7" transform="translate(2612.4 2048.2) rotate(180)"/><rect class="cls-19" x="1281.2" y="1020.8" width="24" height="5" rx="2.5" ry="2.5" transform="translate(2586.4 2046.6) rotate(180)"/><rect class="cls-11" x="1285.8" y="907.5" width="41" height="15.71" rx="7.7" ry="7.7" transform="translate(391 2221.7) rotate(-90)"/><rect class="cls-19" x="1288.2" y="912.8" width="29" height="5" rx="2.5" ry="2.5" transform="translate(387.4 2218) rotate(-90)"/><rect class="cls-20" x="1287.2" y="1010.8" width="38" height="6" rx="1.6" ry="1.6" transform="translate(2612.4 2027.6) rotate(-180)"/><path class="cls-11" d="M1304.2,949.8h4a15,15,0,0,1,15,15v32.8a5.3,5.3,0,0,1-5.3,5.3h-23.5a5.3,5.3,0,0,1-5.3-5.3V964.8a15,15,0,0,1,15-15Z" transform="translate(2612.4 1952.6) rotate(-180)"/><rect class="cls-11" x="1219.2" y="934.8" width="5" height="5" transform="translate(2443.4 1874.6) rotate(-180)"/><rect class="cls-12" x="1217.2" y="938.8" width="9" height="83" rx="1.3" ry="1.3" transform="translate(2443.4 1960.6) rotate(-180)"/><rect class="cls-11" x="1191.2" y="1016.4" width="60" height="15.42" rx="7.7" ry="7.7" transform="translate(2442.4 2048.2) rotate(180)"/><rect class="cls-19" x="1196.2" y="1020.8" width="24" height="5" rx="2.5" ry="2.5" transform="translate(2416.4 2046.6) rotate(-180)"/><rect class="cls-11" x="1200.8" y="907.5" width="41" height="15.71" rx="7.7" ry="7.7" transform="translate(306 2136.7) rotate(-90)"/><rect class="cls-19" x="1203.2" y="912.8" width="29" height="5" rx="2.5" ry="2.5" transform="translate(302.4 2133) rotate(-90)"/><rect class="cls-20" x="1202.2" y="1010.8" width="38" height="6" rx="1.6" ry="1.6" transform="translate(2442.4 2027.6) rotate(-180)"/><path class="cls-11" d="M1219.2,949.8h4a15,15,0,0,1,15,15v32.8a5.3,5.3,0,0,1-5.3,5.3h-23.5a5.3,5.3,0,0,1-5.3-5.3V964.8a15,15,0,0,1,15-15Z" transform="translate(2442.4 1952.6) rotate(-180)"/><rect class="cls-11" x="1138.2" y="934.8" width="5" height="5" transform="translate(2281.4 1874.6) rotate(-180)"/><rect class="cls-12" x="1136.2" y="938.8" width="9" height="83" rx="1.3" ry="1.3" transform="translate(2281.4 1960.6) rotate(-180)"/><rect class="cls-11" x="1110.2" y="1016.4" width="60" height="15.42" rx="7.7" ry="7.7" transform="translate(2280.4 2048.2) rotate(-180)"/><rect class="cls-19" x="1115.2" y="1020.8" width="24" height="5" rx="2.5" ry="2.5" transform="translate(2254.4 2046.6) rotate(-180)"/><rect class="cls-11" x="1119.8" y="907.5" width="41" height="15.71" rx="7.7" ry="7.7" transform="translate(225 2055.7) rotate(-90)"/><rect class="cls-19" x="1122.2" y="912.8" width="29" height="5" rx="2.5" ry="2.5" transform="translate(221.4 2052) rotate(-90)"/><rect class="cls-20" x="1121.2" y="1010.8" width="38" height="6" rx="1.6" ry="1.6" transform="translate(2280.4 2027.6) rotate(-180)"/><path class="cls-11" d="M1138.2,949.8h4a15,15,0,0,1,15,15v32.8a5.3,5.3,0,0,1-5.3,5.3h-23.5a5.3,5.3,0,0,1-5.3-5.3V964.8a15,15,0,0,1,15-15Z" transform="translate(2280.4 1952.6) rotate(-180)"/><rect class="cls-11" x="1052.2" y="934.8" width="5" height="5" transform="translate(2109.4 1874.6) rotate(-180)"/><rect class="cls-12" x="1050.2" y="938.8" width="9" height="83" rx="1.3" ry="1.3" transform="translate(2109.4 1960.6) rotate(-180)"/><rect class="cls-11" x="1024.2" y="1016.4" width="60" height="15.42" rx="7.7" ry="7.7" transform="translate(2108.4 2048.2) rotate(180)"/><rect class="cls-19" x="1029.2" y="1020.8" width="24" height="5" rx="2.5" ry="2.5" transform="translate(2082.4 2046.6) rotate(180)"/><rect class="cls-11" x="1033.8" y="907.5" width="41" height="15.71" rx="7.7" ry="7.7" transform="translate(139 1969.7) rotate(-90)"/><rect class="cls-19" x="1036.2" y="912.8" width="29" height="5" rx="2.5" ry="2.5" transform="translate(135.4 1966) rotate(-90)"/><rect class="cls-20" x="1035.2" y="1010.8" width="38" height="6" rx="1.6" ry="1.6" transform="translate(2108.4 2027.6) rotate(-180)"/><path class="cls-11" d="M1052.2,949.8h4a15,15,0,0,1,15,15v32.8a5.3,5.3,0,0,1-5.3,5.3h-23.5a5.3,5.3,0,0,1-5.3-5.3V964.8A15,15,0,0,1,1052.2,949.8Z" transform="translate(2108.4 1952.6) rotate(-180)"/></g><g id="beer"><ellipse class="cls-21" cx="1689.5" cy="1063.3" rx="38.9" ry="6.5"/><path class="cls-22" d="M1665.3,1004.1h-4.2s-3.1,0-3.8,5-1.5,20.2-.5,23.8c2,7.8,5.3,8.1,11.9,9.1v4.7s-13.2-.4-15.7-13.3-.3-24.3.1-27.2a7.4,7.4,0,0,1,6.7-6.4,83.4,83.4,0,0,1,10.3.3Z"/><path class="cls-23" d="M1662.6,988.7v68.7s-.3,6,4,6.9c6,1.2,44.5,0,44.5,0s4.4,1.2,4-7.3.1-68.3.1-68.3Z"/><path class="cls-24" d="M1664.7,990.6V1055s-.3,5.6,3.7,6.4c5.5,1.2,40.6,0,40.6,0s4,1.2,3.7-6.8,0-64,0-64Z"/><path class="cls-25" d="M1663.9,976.2s-7.4,5.4-3.7,12.6,1.7,7.5,3.3,6.6l3.4-1.8c3.3-1.8,6.3.6,10.3.5s4-1.4,9.2-1.4,10.1-.3,11.3,2.2,1.2,9.2,4.8,8.1,2.7-5.5,4.4-7.3,1.4-2,4.2-.2,4.5,3,5.5,0,2-11.5-1.3-12.8-2.8,2.4-7.4-5.7-15.5,0-19.5.3-10.7,1.8-13.2-1.4S1663.9,976.2,1663.9,976.2Z"/><path class="cls-26" d="M1668.6,1061.6v-43.4s0-4,3.2-4.1,3.3,3.7,3.3,3.7l.6,44.1Z"/><path class="cls-26" d="M1680,1061.9v-43.7s-.1-4,3.2-4.1,3.2,3.7,3.2,3.7l.6,44.1Z"/><path class="cls-26" d="M1691.6,1061.8v-43.6s0-4,3.2-4.1,3.3,3.7,3.3,3.7l.5,43.9Z"/><path class="cls-26" d="M1703.3,1061.6v-43.4s0-4,3.2-4.1,3.2,3.7,3.2,3.7l.6,43.5Z"/><circle class="cls-27" cx="1004.4" cy="1008.6" r="1"/><circle class="cls-27" cx="1688.2" cy="1002.6" r="0.7"/><circle class="cls-27" cx="1697.5" cy="1007.2" r="0.4"/><circle class="cls-27" cx="1702" cy="1019.8" r="1.3"/><circle class="cls-27" cx="1685.4" cy="1016.1" r="0.5"/><circle class="cls-27" cx="1673.1" cy="1016.5" r="0.9"/><circle class="cls-27" cx="1673.1" cy="1005.6" r="0.9"/><circle class="cls-27" cx="1689.5" cy="1042.7" r="1"/><circle class="cls-27" cx="1677.2" cy="1046.1" r="2"/><circle class="cls-27" cx="1680.3" cy="1028.7" r="0.6"/><circle class="cls-27" cx="1685.2" cy="1011.2" r="0.3"/><circle class="cls-27" cx="1691.3" cy="1008" r="0.4"/></g><g id="arm"><circle class="cls-3" cx="1227.7" cy="899.3" r="24.5"/></g><g id="man"><circle class="cls-3" cx="1744.7" cy="948.3" r="12.5"/><circle class="cls-3" cx="1719.2" cy="952.8" r="26"/><path class="cls-28" d="M1881.2,917.8l14,2c7.5,0-11-19-11-26.5v-67a13.5,13.5,0,0,0-13.5-13.5h-32.3a21.2,21.2,0,0,0-21.2,21.2v19.3C1817.2,882.9,1851.7,917.8,1881.2,917.8Z"/><rect class="cls-29" x="1813.2" y="974.8" width="52" height="169" transform="translate(3678.4 2118.6) rotate(-180)"/><rect class="cls-30" x="1731.2" y="1147.8" width="215" height="49" rx="24.5" ry="24.5" transform="translate(3677.4 2344.6) rotate(180)"/><rect class="cls-30" x="1656.3" y="1253.1" width="258.8" height="49" rx="24.5" ry="24.5" transform="translate(1056.6 3348.6) rotate(-106.2)"/><rect class="cls-30" x="1736.3" y="1257.1" width="258.8" height="49" rx="24.5" ry="24.5" transform="translate(1155 3430.6) rotate(-106.2)"/><rect class="cls-31" x="1813.2" y="1136.8" width="141" height="21" rx="6.8" ry="6.8" transform="translate(3767.4 2294.6) rotate(-180)"/><path class="cls-4" d="M1858.2,974.8h53V939.2a7.4,7.4,0,0,0-7.4-7.4h-38.2a7.4,7.4,0,0,0-7.4,7.4Z"/><rect class="cls-4" x="1738.1" y="979.7" width="141" height="42.56" rx="21.3" ry="21.3" transform="translate(3747.2 283.5) rotate(130.7)"/><rect class="cls-4" x="1683.5" y="989.3" width="118.3" height="32.76" rx="16.4" ry="16.4" transform="translate(1989.2 3002.4) rotate(-127)"/><rect class="cls-4" x="1887.2" y="981.9" width="134.4" height="42.56" rx="21.3" ry="21.3" transform="translate(2330.5 3167.5) rotate(-127)"/><rect class="cls-4" x="1865.2" y="970.8" width="85" height="166" transform="translate(3815.4 2107.6) rotate(-180)"/><path class="cls-32" d="M1860.1,934.2s-54.9-.4-40.9-78.4l7,9s4.6-16.2,19-9c16.9,8.5,0,28.6-2,26,0,0,8,42,59,33v18Z"/><rect class="cls-28" x="1809.2" y="791.8" width="100" height="30" rx="13.5" ry="13.5" transform="translate(3718.4 1613.6) rotate(-180)"/><path class="cls-33" d="M1879.8,912.8c1.1,1.9,4.2,3,6.4,3h9c21.7,0,34-19,34-41.3v-47c0-14.2-11.2-25.7-25-25.7h0c-21.2,0-32.8,15.8-37.1,35.9a78.4,78.4,0,0,0-.9,26l1.7,14.1a85.1,85.1,0,0,0,6.4,23.2C1876.1,905.1,1878.1,909.8,1879.8,912.8Z"/><rect class="cls-3" x="1722.2" y="896.8" width="15" height="47" rx="6.5" ry="6.5" transform="translate(3459.4 1840.6) rotate(-180)"/><circle class="cls-10" cx="1841.2" cy="868.8" r="6"/></g><g id="phone"><rect class="cls-34" x="2019.2" y="885.8" width="42" height="76.5" rx="5.5" ry="5.5" transform="translate(4130 1729.7) rotate(176.7)"/><rect class="cls-35" x="2023.1" y="890.8" width="33.9" height="63" rx="1.1" ry="1.1" transform="translate(4129.6 1726.3) rotate(176.7)"/><rect class="cls-36" x="2024.1" y="900.1" width="23" height="10" transform="translate(4119.7 1692) rotate(176.7)"/><rect class="cls-37" x="2031.1" y="917.7" width="22" height="10" transform="translate(4133.8 1726.9) rotate(176.7)"/></g><g id="woman"><circle class="cls-3" cx="2015.7" cy="946.3" r="15.5"/><rect class="cls-32" x="1978.9" y="1264.8" width="245.2" height="33" rx="16.5" ry="16.5" transform="translate(3210.6 -915.9) rotate(85.4)"/><rect class="cls-32" x="1911.9" y="1265.8" width="245.2" height="33" rx="16.5" ry="16.5" transform="translate(3150 -848.2) rotate(85.4)"/><rect class="cls-4" x="2101.2" y="1015.8" width="56" height="146" transform="translate(4258.4 2177.6) rotate(-180)"/><rect class="cls-29" x="2067.2" y="1015.8" width="34" height="142" transform="translate(4168.4 2173.6) rotate(-180)"/><rect class="cls-4" x="2003" y="1011.8" width="105.8" height="29.47" rx="14.7" ry="14.7" transform="translate(4315.4 608) rotate(143)"/><rect class="cls-4" x="1962.3" y="988.6" width="112.3" height="29.47" rx="14.7" ry="14.7" transform="translate(1330 3149.7) rotate(-98.7)"/><rect class="cls-4" x="2109.7" y="997.5" width="112.8" height="29.47" rx="14.7" ry="14.7" transform="translate(2789.9 3320.4) rotate(-130.2)"/><path class="cls-9" d="M2038.2,815.8H2134a30.2,30.2,0,0,1,30.2,30.2v13.9a30.9,30.9,0,0,1-30.9,30.9h-64a31.1,31.1,0,0,1-31.1-31.1V815.8a0,0,0,0,1,0,0Z" transform="translate(4202.4 1706.6) rotate(-180)"/><path class="cls-9" d="M2023.7,910.3h154.8a30.2,30.2,0,0,1,30.2,30.2v10.9a30.9,30.9,0,0,1-30.9,30.9h-123a31.1,31.1,0,0,1-31.1-31.1V910.3a0,0,0,0,1,0,0Z" transform="translate(3062.5 -1169.9) rotate(90)"/><path class="cls-33" d="M2137.4,839.8H2156a18.2,18.2,0,0,1,18.2,18.2V995.9a43,43,0,0,1-43,43h-8a25,25,0,0,1-25-25V879A39.2,39.2,0,0,1,2137.4,839.8Z" transform="translate(4272.4 1878.6) rotate(-180)"/><path class="cls-32" d="M2054.5,879.4s-11.3,67.8,25.7,80.6V910.8s11-7,8-16-13-14-20-8S2054.5,879.4,2054.5,879.4Z"/><rect class="cls-30" x="2009.2" y="1157.8" width="155" height="35" rx="16.5" ry="16.5" transform="translate(4173.4 2350.6) rotate(180)"/><circle class="cls-10" cx="2077" cy="899.1" r="5"/></g><g id="bar_stools" data-name="bar stools"><rect class="cls-38" x="2103.4" y="1250.2" width="12" height="227.01" transform="translate(3528.9 3436) rotate(-157.3)"/><rect class="cls-38" x="2073.4" y="1250.2" width="12" height="227.01" transform="translate(3471.2 3424.4) rotate(-157.3)"/><rect class="cls-38" x="2024.2" y="1379.8" width="97" height="14" transform="translate(4145.4 2773.6) rotate(-180)"/><rect class="cls-39" x="2018.2" y="1192.8" width="153" height="49" rx="10" ry="10" transform="translate(4189.4 2434.6) rotate(-180)"/><rect class="cls-40" x="2018.2" y="1231.8" width="153" height="10.43" rx="3.2" ry="3.2" transform="translate(4189.4 2474.1) rotate(-180)"/><path class="cls-41" d="M2018.2,1192.8h39a10,10,0,0,1,10,10v29a10,10,0,0,1-10,10h-39a0,0,0,0,1,0,0v-49A0,0,0,0,1,2018.2,1192.8Z" transform="translate(4085.4 2434.6) rotate(-180)"/><rect class="cls-42" x="2073.7" y="1248.8" width="4.7" height="227.01" transform="matrix(-0.92, -0.39, 0.39, -0.92, 3465.3, 3420.41)"/><rect class="cls-42" x="2101.7" y="1252.8" width="4.7" height="227.01" transform="matrix(-0.92, -0.39, 0.39, -0.92, 3517.59, 3438.91)"/><rect class="cls-38" x="2024.2" y="1461.8" width="126" height="21" transform="translate(4174.4 2944.6) rotate(-180)"/><rect class="cls-38" x="2022.2" y="1241.8" width="142" height="21" transform="translate(4186.4 2504.6) rotate(-180)"/><rect class="cls-42" x="2022.2" y="1241.8" width="29" height="21" transform="translate(4073.4 2504.6) rotate(-180)"/><rect class="cls-42" x="2024.2" y="1461.8" width="21" height="21" transform="translate(4069.4 2944.6) rotate(-180)"/><rect class="cls-42" x="2023.2" y="1379.8" width="17" height="14" transform="translate(4063.4 2773.6) rotate(-180)"/><rect class="cls-38" x="1889.4" y="1250.2" width="12" height="227.01" transform="translate(3117.5 3353.4) rotate(-157.3)"/><rect class="cls-38" x="1859.4" y="1250.2" width="12" height="227.01" transform="translate(3059.8 3341.8) rotate(-157.3)"/><rect class="cls-38" x="1810.2" y="1379.8" width="97" height="14" transform="translate(3717.4 2773.6) rotate(-180)"/><rect class="cls-39" x="1804.2" y="1192.8" width="153" height="49" rx="10" ry="10" transform="translate(3761.4 2434.6) rotate(-180)"/><rect class="cls-40" x="1804.2" y="1231.8" width="153" height="10.43" rx="3.2" ry="3.2" transform="translate(3761.4 2474.1) rotate(-180)"/><path class="cls-41" d="M1804.2,1192.8h39a10,10,0,0,1,10,10v29a10,10,0,0,1-10,10h-39a0,0,0,0,1,0,0v-49A0,0,0,0,1,1804.2,1192.8Z" transform="translate(3657.4 2434.6) rotate(-180)"/><rect class="cls-42" x="1859.7" y="1248.8" width="4.7" height="227.01" transform="translate(3053.9 3337.8) rotate(-157.3)"/><rect class="cls-42" x="1887.7" y="1252.8" width="4.7" height="227.01" transform="matrix(-0.92, -0.39, 0.39, -0.92, 3106.18, 3356.3)"/><rect class="cls-38" x="1810.2" y="1461.8" width="126" height="21" transform="translate(3746.4 2944.6) rotate(-180)"/><rect class="cls-38" x="1808.2" y="1241.8" width="142" height="21" transform="translate(3758.4 2504.6) rotate(-180)"/><rect class="cls-42" x="1808.2" y="1241.8" width="29" height="21" transform="translate(3645.4 2504.6) rotate(-180)"/><rect class="cls-42" x="1810.2" y="1461.8" width="21" height="21" transform="translate(3641.4 2944.6) rotate(-180)"/><rect class="cls-42" x="1809.2" y="1379.8" width="17" height="14" transform="translate(3635.4 2773.6) rotate(-180)"/><rect class="cls-38" x="1022" y="1250.2" width="12" height="227.01" transform="translate(-446.7 502.5) rotate(-22.7)"/><rect class="cls-38" x="1052" y="1250.2" width="12" height="227.01" transform="translate(-444.4 514.1) rotate(-22.7)"/><rect class="cls-38" x="1016.2" y="1379.8" width="97" height="14"/><rect class="cls-39" x="966.2" y="1192.8" width="153" height="49" rx="10" ry="10"/><rect class="cls-40" x="966.2" y="1231.8" width="153" height="10.43" rx="3.2" ry="3.2"/><path class="cls-41" d="M1070.2,1192.8h39a10,10,0,0,1,10,10v29a10,10,0,0,1-10,10h-39a0,0,0,0,1,0,0v-49A0,0,0,0,1,1070.2,1192.8Z"/><rect class="cls-42" x="1059" y="1248.8" width="4.7" height="227.01" transform="translate(-443.6 515.3) rotate(-22.7)"/><rect class="cls-42" x="1031" y="1252.8" width="4.7" height="227.01" transform="translate(-447.3 504.8) rotate(-22.7)"/><rect class="cls-38" x="987.2" y="1461.8" width="126" height="21"/><rect class="cls-38" x="973.2" y="1241.8" width="142" height="21"/><rect class="cls-42" x="1086.2" y="1241.8" width="29" height="21"/><rect class="cls-42" x="1092.2" y="1461.8" width="21" height="21"/><rect class="cls-42" x="1097.2" y="1379.8" width="17" height="14"/><rect class="cls-38" x="1236" y="1250.2" width="12" height="227.01" transform="translate(-430.2 585.1) rotate(-22.7)"/><rect class="cls-38" x="1266" y="1250.2" width="12" height="227.01" transform="translate(-427.8 596.7) rotate(-22.7)"/><rect class="cls-38" x="1230.2" y="1379.8" width="97" height="14"/><rect class="cls-39" x="1180.2" y="1192.8" width="153" height="49" rx="10" ry="10"/><rect class="cls-40" x="1180.2" y="1231.8" width="153" height="10.43" rx="3.2" ry="3.2"/><path class="cls-41" d="M1284.2,1192.8h39a10,10,0,0,1,10,10v29a10,10,0,0,1-10,10h-39a0,0,0,0,1,0,0v-49A0,0,0,0,1,1284.2,1192.8Z"/><rect class="cls-42" x="1273" y="1248.8" width="4.7" height="227.01" transform="translate(-427 597.9) rotate(-22.7)"/><rect class="cls-42" x="1245" y="1252.8" width="4.7" height="227.01" transform="translate(-430.7 587.4) rotate(-22.7)"/><rect class="cls-38" x="1201.2" y="1461.8" width="126" height="21"/><rect class="cls-38" x="1187.2" y="1241.8" width="142" height="21"/><rect class="cls-42" x="1300.2" y="1241.8" width="29" height="21"/><rect class="cls-42" x="1306.2" y="1461.8" width="21" height="21"/><rect class="cls-42" x="1311.2" y="1379.8" width="17" height="14"/></g></svg>