<svg id="Layer_1" data-name="Layer 1" xmlns="http://www.w3.org/2000/svg" viewBox="0 0 297.5 297.7"><defs><style>.cls-1{fill:#cfcece;}.cls-2{fill:#f2d58c;}.cls-3{fill:#eff8fa;}.cls-4{fill:#d8bd82;}.cls-5{fill:#dc972e;}</style></defs><title>beer</title><path class="cls-1" d="M79.2,98.6c0,.2-13.7,0-13.7,0s-9.8,0-12,16-4.8,65.2-1.8,76.7c6.4,25.2,17.3,26,38.5,29.4v15.1s-42.7-1.2-50.7-42.9-.8-78.2.4-87.5c1.6-11.9,10.9-19.3,21.7-20.5s32.9.9,32.9.9Z"/><path class="cls-1" d="M70.4,49V270.2s-1,19.1,13,22.1c19.2,4,143.1,0,143.1,0s14.4,3.9,13.1-23.4,0-219.9,0-219.9Z"/><path class="cls-2" d="M77.4,55.1V262.4s-1,17.9,11.8,20.7c17.5,3.8,130.5,0,130.5,0s13.1,3.7,11.9-22,.1-206,.1-206Z"/><path class="cls-3" d="M74.6,8.9S51,26.1,62.8,49.5s5.4,24,10.7,21.2l10.7-5.9c10.6-5.9,20.3,1.9,33.3,1.8s12.9-4.5,29.5-4.8,32.5-.9,36.4,7.2,3.9,29.6,15.6,26.2,8.6-17.9,14.2-23.5,4.4-6.5,13.2-.9,14.6,9.8,17.7.3,6.5-37.1-4.2-41.2-9,7.7-23.7-18.3-49.9-.2-62.8.9S119,18.3,110.9,8,74.6,8.9,74.6,8.9Z"/><path class="cls-4" d="M89.9,283.7V143.9s-.1-12.6,10.2-12.9,10.6,11.7,10.6,11.7l1.8,142.1Z"/><path class="cls-4" d="M126.4,284.8V143.9s-.1-12.6,10.2-12.9,10.6,11.7,10.6,11.7L149,284.8Z"/><path class="cls-4" d="M163.9,284.5V143.9s-.1-12.6,10.3-12.9,10.5,11.7,10.5,11.7l1.8,141.2Z"/><path class="cls-4" d="M201.4,283.7V143.9s-.1-12.6,10.3-12.9,10.5,11.7,10.5,11.7L224,282.8Z"/><circle class="cls-5" cx="216.1" cy="101.8" r="3.3"/><circle class="cls-5" cx="152.8" cy="93.8" r="2.2"/><circle class="cls-5" cx="182.7" cy="108.6" r="1.4"/><circle class="cls-5" cx="143.9" cy="137.2" r="1.7"/><circle class="cls-5" cx="104.1" cy="138.4" r="2.9"/><circle class="cls-5" cx="104.1" cy="103.5" r="2.9"/><circle class="cls-5" cx="143.1" cy="121.4" r="0.9"/><circle class="cls-5" cx="162.8" cy="111.2" r="1.1"/></svg>