<svg xmlns="http://www.w3.org/2000/svg" viewBox="0 0 297.5 297.7"><defs><style>.cls-1{fill:#fff;}.cls-2{fill:#f2d58c;}.cls-3{fill:#a9a8a8;}.cls-4{fill:#cdcccc;}</style></defs><title>calendar</title><g id="Layer_1" data-name="Layer 1"><rect class="cls-1" y="23.7" width="297.5" height="274" rx="12" ry="12"/><path class="cls-2" d="M297.5,35.7a12,12,0,0,0-12-12H12a12,12,0,0,0-12,12V71.4H297.5Z"/><rect class="cls-3" x="38.8" width="26.2" height="55.33" rx="11.7" ry="11.7"/><rect class="cls-3" x="137" width="26.2" height="55.33" rx="11.7" ry="11.7"/><rect class="cls-3" x="234.6" width="26.2" height="55.33" rx="11.7" ry="11.7"/><rect class="cls-4" x="114.6" y="92.7" width="26.4" height="26.42" rx="8.5" ry="8.5"/><rect class="cls-4" x="155.5" y="92.7" width="26.4" height="26.42" rx="8.5" ry="8.5"/><rect class="cls-4" x="195.8" y="92.7" width="26.4" height="26.42" rx="8.5" ry="8.5"/><rect class="cls-4" x="238" y="92.7" width="26.4" height="26.42" rx="8.5" ry="8.5"/><rect class="cls-4" x="114.6" y="133" width="26.4" height="26.42" rx="8.5" ry="8.5"/><rect class="cls-4" x="155.5" y="133" width="26.4" height="26.42" rx="8.5" ry="8.5"/><rect class="cls-4" x="195.8" y="133" width="26.4" height="26.42" rx="8.5" ry="8.5"/><rect class="cls-4" x="238" y="133" width="26.4" height="26.42" rx="8.5" ry="8.5"/><rect class="cls-4" x="115.3" y="213.6" width="26.4" height="26.42" rx="8.5" ry="8.5"/><rect class="cls-4" x="156.2" y="213.6" width="26.4" height="26.42" rx="8.5" ry="8.5"/><rect class="cls-4" x="196.6" y="213.6" width="26.4" height="26.42" rx="8.5" ry="8.5"/><rect class="cls-4" x="238.7" y="213.6" width="26.4" height="26.42" rx="8.5" ry="8.5"/><rect class="cls-4" x="34.4" y="251.8" width="26.4" height="26.42" rx="8.5" ry="8.5"/><rect class="cls-4" x="74.3" y="251.8" width="26.4" height="26.42" rx="8.5" ry="8.5"/><rect class="cls-4" x="34.4" y="213.6" width="26.4" height="26.42" rx="8.5" ry="8.5"/><rect class="cls-4" x="74.3" y="213.6" width="26.4" height="26.42" rx="8.5" ry="8.5"/><rect class="cls-4" x="34.4" y="133" width="26.4" height="26.42" rx="8.5" ry="8.5"/><rect class="cls-4" x="74.3" y="133" width="26.4" height="26.42" rx="8.5" ry="8.5"/><rect class="cls-4" x="114.6" y="173.3" width="26.4" height="26.42" rx="8.5" ry="8.5"/><rect class="cls-4" x="155.5" y="173.3" width="26.4" height="26.42" rx="8.5" ry="8.5"/><rect class="cls-4" x="195.8" y="173.3" width="26.4" height="26.42" rx="8.5" ry="8.5"/><rect class="cls-4" x="238" y="173.3" width="26.4" height="26.42" rx="8.5" ry="8.5"/><rect class="cls-4" x="34.4" y="173.3" width="26.4" height="26.42" rx="8.5" ry="8.5"/><rect class="cls-4" x="74.3" y="173.3" width="26.4" height="26.42" rx="8.5" ry="8.5"/><rect class="cls-4" x="116.6" y="251.8" width="26.4" height="26.42" rx="8.5" ry="8.5"/><rect class="cls-4" x="156.2" y="251.8" width="26.4" height="26.42" rx="8.5" ry="8.5"/><rect class="cls-4" x="196.6" y="251.8" width="26.4" height="26.42" rx="8.5" ry="8.5"/></g></svg>