<svg xmlns="http://www.w3.org/2000/svg" viewBox="0 0 66.59098 104.17173"><title>keg</title><g id="Layer_4" data-name="Layer 4"><rect x="31.4888" y="0.6481" width="3.57759" height="2.62953" fill="#adadad"/><polygon points="27.643 4.762 27.643 8.388 38.975 8.388 38.975 4.816 27.643 4.762" fill="#adadad"/><polygon points="37.356 3.278 37.356 5.693 29.163 5.693 29.163 3.385 37.356 3.278" fill="#adadad"/><rect x="27.44612" y="4.48507" width="11.68084" height="0.76024" fill="#cac9c9"/><rect x="28.69828" y="2.99142" width="9.0692" height="0.60819" fill="#cac9c9"/><rect x="42.81189" y="8.91234" width="15.95607" height="9.80261" fill="#adadad"/><path d="M0,97.30275a6.88917,6.88917,0,0,0,6.869,6.869H59.722a6.88917,6.88917,0,0,0,6.869-6.869v-13.738H0Z" fill="#cfcece"/><path d="M59.722,7.052H6.869A6.88917,6.88917,0,0,0,0,13.921V27.94514H66.591V13.921A6.88917,6.88917,0,0,0,59.722,7.052Zm-5.1756,8.72933H38.37567a2.93363,2.93363,0,1,1,0-5.86725H54.5464a2.93363,2.93363,0,1,1,0,5.86725Z" fill="#cfcece"/><rect y="29.66239" width="66.59098" height="52.18515" fill="#cfcece"/><rect y="37.6762" width="66.59098" height="36.15755" fill="#adadad"/><rect x="1.88645" y="81.84754" width="62.81808" height="1.71725" fill="#adadad"/><rect x="1.85684" y="27.94517" width="62.81808" height="1.71725" fill="#adadad"/></g></svg>