<svg xmlns="http://www.w3.org/2000/svg" viewBox="0 0 32 22"><defs><style>.cls-1{fill:#fff;}.cls-2{fill:#4a4947;}</style></defs><title>menu</title><g id="Layer_2" data-name="Layer 2"><rect class="cls-1" width="32" height="22"/></g><g id="Слой_1" data-name="Слой 1"><g id="Menu"><path class="cls-2" d="M1,2H31a.9.9,0,0,0,1-1,.9.9,0,0,0-1-1H1A.9.9,0,0,0,0,1,.9.9,0,0,0,1,2Z"/><path class="cls-2" d="M31,10H1a.9.9,0,0,0-1,1,.9.9,0,0,0,1,1H31a.9.9,0,0,0,1-1A.9.9,0,0,0,31,10Z"/><path class="cls-2" d="M31,20H1a1,1,0,0,0,0,2H31a1,1,0,0,0,0-2Z"/></g></g></svg>