<svg id="Layer_1" data-name="Layer 1" xmlns="http://www.w3.org/2000/svg" viewBox="0 0 297.5 297.7"><defs><style>.cls-1{fill:#f2d58c;}</style></defs><title>setting</title><g id="icons"><path id="settings" class="cls-1" d="M273.3,178.1l-14.6-8.5c-15.9-9.8-15.9-33,0-42.7l14.6-8.6c12.2-7.3,15.9-22,8.6-33L269.6,64.6c-7.3-12.2-21.9-15.9-32.9-8.6L222,64.6c-15.9,9.7-36.6-2.5-36.6-20.8V26.7A24.5,24.5,0,0,0,161,2.3H136.5a24.5,24.5,0,0,0-24.4,24.4V42.6c0,18.3-20.7,30.5-36.6,20.7L60.8,56a23.6,23.6,0,0,0-32.9,8.6L15.6,85.3c-6.1,12.2-2.4,26.9,8.6,34.2l14.6,8.6c15.9,8.5,15.9,32.9,0,41.5l-14.6,8.5c-12.2,7.4-15.9,22-8.6,33l12.3,20.8c7.3,12.2,21.9,15.9,32.9,8.5l14.7-7.3c15.9-9.8,36.6,2.4,36.6,20.8V271a24.5,24.5,0,0,0,24.4,24.4H161A24.5,24.5,0,0,0,185.4,271V255.1c0-18.3,20.7-30.6,36.6-20.8l14.7,8.6a23.6,23.6,0,0,0,32.9-8.6l12.3-20.7C288,200.1,284.3,185.5,273.3,178.1ZM148.7,197.7a48.9,48.9,0,1,1,48.9-48.9A49,49,0,0,1,148.7,197.7Z"/></g></svg>