<svg xmlns="http://www.w3.org/2000/svg" viewBox="0 0 198.4252 255.11811"><title>teachers</title><g id="Layer_6" data-name="Layer 6"><rect x="4.6164" y="7.18645" width="185.70978" height="240.74522" fill="#d39761"/></g><g id="Jonas"><path d="M65.32461,146.30322s4.17717,13.50618.27847,21.99976-31.74649,21.99976-31.74649,21.99976S109.46337,239.59335,129.653,212.581s14.48085-38.70845,14.48085-38.70845-18.79726-1.67087-19.215-6.405-1.11391-25.62-1.11391-25.62Z" fill="#d8bfac"/><path d="M125.75433,104.53152s2.924-12.1138,6.962-10.58217,3.8987,13.64543,3.8987,13.64543.27848,15.177-5.29109,18.10107-11.69607.27847-11.69607.27847Z" fill="#d8bfac"/><path d="M58.91961,110.10108c-1.25315-2.5063-8.35434-8.77206-10.58216-7.24043s-1.67087,16.56944.83543,19.49346,3.75945,10.58216,7.79739,11.13912a14.62926,14.62926,0,0,0,7.5189-1.11391Z" fill="#d8bfac"/><path d="M87.04589,58.02569S51.26147,59.8358,53.35005,85.595s3.89869,48.1767,11.97456,60.70821,9.74673,14.06314,20.88585,16.70868,23.25291.69619,29.24019-4.17717,11.4176-13.50618,11.69607-21.99976,3.2025-53.8855-9.46825-66.55625S87.04589,58.02569,87.04589,58.02569Z" fill="#f2d8c0"/><path d="M55.93891,113.7461s1.03136-19.03093,6.044-31.07511-8.72081,0-8.72081,0S52.05315,105.34694,55.93891,113.7461Z" fill="#67584e"/><path d="M111.27348,78.07611s15.87336,23.71619,16.08231,29.50824S128.1214,92,123.38727,78.07611,111.27348,78.07611,111.27348,78.07611Z" fill="#67584e"/><path d="M57.24874,173.66368s9.81635,33.20851,43.02486,26.94275,32.16421-30.91106,32.16421-30.91106,52.94563,17.23083,59.73353,20.25928-.20886,49.91718-.20886,49.91718L4.82526,242.37813,4.6164,203.53045Z" fill="#341c3e"/><g id="hat"><path d="M53.73607,89.81s-4.07619,9.592-.99584,10.30751,27.78893-10.07732,35.99141-9.69532,36.531,11.79489,38.21293,4.93077a20.08911,20.08911,0,0,0-1.604-12.98423L85.861,73.32278Z" fill="#1e1e1d"/><path d="M86.57687,51.62485s-1.80282-3.74433,3.60565-3.60565,3.32829,4.99244,3.32829,4.99244Z" fill="#1e1e1d"/><path d="M50.98266,88.69058s-.64716-38.316,39.19986-37.32964,38.27533,37.48139,38.27533,37.48139-.64717,2.57969-8.69054.45524S98.87305,82.469,90.73723,82.31723,62.44677,89.37344,60.043,89.75281,51.07512,90.51154,50.98266,88.69058Z" fill="#333"/></g></g><g id="frames"><path d="M0,0V255.11811H198.4252V0ZM190.32618,247.93166H8.09894V7.18645H190.32618Z" fill="#5a5a5a"/><polygon points="17.93 15.723 17.959 15.723 8.099 7.186 8.099 247.932 17.93 239.367 17.93 15.723" fill="#4a494a"/><polygon points="180.495 15.723 180.495 239.367 190.326 247.932 190.326 7.186 180.466 15.723 180.495 15.723" fill="#4a494a"/><polygon points="17.959 15.723 180.466 15.723 190.326 7.186 8.099 7.186 17.959 15.723" fill="#353535"/><polygon points="180.495 239.395 17.93 239.395 17.93 239.367 8.099 247.932 190.326 247.932 180.495 239.367 180.495 239.395" fill="#353535"/></g></svg>