<svg xmlns="http://www.w3.org/2000/svg" viewBox="0 0 198.4252 255.11811"><title>teachers</title><g id="Layer_6" data-name="Layer 6"><rect x="4.79305" y="6.18399" width="185.70978" height="240.74522" fill="#d39761"/></g><g id="Martin"><path d="M140.70266,108.52039s4.14359-3.194,5.00684-1.72649-2.50342,24.51625-2.50342,24.51625-1.0359,7.76923-5.61111,6.56068S140.70266,108.52039,140.70266,108.52039Z" fill="#d8bfac"/><path d="M70.77955,109.72894s-.6906-8.89146-7.76924-6.73334S59.212,120.08792,59.212,120.08792s.51795,12.18459,6.73334,14.37948,5.69743,0,5.69743,0Z" fill="#d8bfac"/><path d="M76.08878,149.04173s-7.27689,21.193-30.56251,27.04368,45.93328,40.72092,45.93328,40.72092,56.89233-32.67811,60.12-41.96515c0,0-30.66324-15.37178-26.28278-23.32874S76.08878,149.04173,76.08878,149.04173Z" fill="#d8bfac"/><path d="M108.41717,54.48105s-43.297-2.96482-41.09062,48.371,2.7624,45.03245,2.7624,45.03245,10.1,21.58121,33.66668,24.171,32.97609-17.43762,32.97609-17.43762,7.68291-20.89061,7.07863-64.39832S108.41717,54.48105,108.41717,54.48105Z" fill="#f2d8c0"/><path d="M140.99594,165.74425s-27.62948,50.8741-83.68307,0c0,0-18.76126,4.25869-39.59432,21.63875S8.971,245.39329,8.971,245.39329l189.45423-4.604-11.27978-55.47809S157.34563,168.04624,140.99594,165.74425Z" fill="#8c9191"/><path d="M57.31287,165.74425l7.74033-3.1077s40.48648,48.68721,73.52011,3.1077h2.42263S113.48156,218.92034,57.31287,165.74425Z" fill="#d3d3d3"/><path d="M94.86469,183.38018l-9.92787,8.837s-17.265-10.47408-27.62395-26.47294l7.74033-3.1077S89.9307,182.13976,94.86469,183.38018Z" fill="#efefef"/><path d="M113.334,184.44478l7.05359,6.39122s20.15351-12.43078,20.60839-25.09175h-2.42263S129.76073,180.93107,113.334,184.44478Z" fill="#efefef"/><path d="M80.10263,73.70271S69.87117,87.354,67.245,103.456a5.75862,5.75862,0,0,0-4.23469-.4604S60.881,70.765,70.43425,66.1048c0,0,12.83362-25.32063,39.70942-17.83914S146.7454,66.1048,146.7454,66.1048s6.61823,7.42526,11.39488,5.75631-9.208,16.68947-20.83306,10.01368c0,0,.59655,2.68575,2.18689,3.2228,0,0-5.46724.9208-14.963-4.37379,0,0,3.10769,6.79088,7.02109,6.44558,0,0-13.35158-.78547-16.28662-5.04416,0,0,2.58974,7.69146,6.61824,8.15186C121.88385,90.27708,87.75676,88.72323,80.10263,73.70271Z" fill="#715f4e"/><path d="M142.46031,107.34415s.17037-23.26864-2.49136-24.369a24.62926,24.62926,0,0,0,8.39662-.84993s.26928,19.07862-3.58171,24.29074Z" fill="#715f4e"/></g><g id="frames"><path d="M0,0V255.11811H199.01424V0ZM190.89118,247.93166H8.123V7.18645h182.7682Z" fill="#5a5a5a"/><polygon points="17.983 15.723 18.013 15.723 8.123 7.186 8.123 247.932 17.983 239.367 17.983 15.723" fill="#4a494a"/><polygon points="181.031 15.723 181.031 239.367 190.891 247.932 190.891 7.186 181.002 15.723 181.031 15.723" fill="#4a494a"/><polygon points="18.013 15.723 181.002 15.723 190.891 7.186 8.123 7.186 18.013 15.723" fill="#353535"/><polygon points="181.031 239.395 17.983 239.395 17.983 239.367 8.123 247.932 190.891 247.932 181.031 239.367 181.031 239.395" fill="#353535"/></g></svg>